<svg width="16" height="16" viewBox="0 0 16 16" fill="none" xmlns="http://www.w3.org/2000/svg">
<path d="M8 15.5C12.1421 15.5 15.5 12.1421 15.5 8C15.5 3.85786 12.1421 0.5 8 0.5C3.85786 0.5 0.5 3.85786 0.5 8C0.5 12.1421 3.85786 15.5 8 15.5Z" fill="#699635"/>
<path d="M7.92499 6.675C7.89999 6.45 8.02499 6.225 8.24999 6.275C8.42499 6.3 8.62499 6.475 8.52499 6.65C8.37499 6.925 7.97499 6.925 7.72499 7.075C7.74999 7.225 8.47499 7.05 8.59999 7.05C8.72499 7.05 8.84999 7.1 8.77499 7.25C8.69999 7.4 8.44999 7.4 8.29999 7.425C8.14999 7.45 7.89999 7.45 7.82499 7.575C7.67499 7.775 7.97499 7.8 8.07499 7.85C8.32499 7.975 7.92499 8.1 7.82499 8.075C7.44999 8 7.37499 7.8 7.14999 7.55C6.92499 7.85 6.22499 8.525 6.07499 7.825C5.82499 7.925 5.57499 8.05 5.29999 8.075C5.42499 7.9 5.67499 7.825 5.87499 7.725C6.12499 7.6 6.12499 7.375 6.27499 7.175C6.32499 7.25 6.27499 7.35 6.29999 7.45C6.49999 7.35 6.74999 7.15 6.64999 6.9C6.64999 6.875 6.34999 6.275 6.59999 6.375C6.82499 6.475 6.74999 6.7 6.79999 6.875C6.87499 7.2 6.72499 7.375 6.47499 7.575C6.37499 7.65 6.09999 7.95 6.42499 7.95C6.64999 7.95 6.84999 7.7 6.97499 7.55C7.12499 7.35 7.07499 7.15 6.97499 6.925C6.89999 6.75 6.72499 6.375 6.94999 6.25C7.12499 6.525 7.19999 6.85 7.27499 7.175C7.32499 7.45 7.37499 7.725 7.67499 7.8C7.64999 7.6 7.77499 7.45 7.94999 7.375C7.82499 7.275 7.12499 7.4 7.39999 7.025C7.42499 6.85 7.92499 6.775 7.92499 6.675Z" fill="white"/>
<path d="M4.09997 7.60003C4.22497 7.95003 4.64997 7.82503 4.89997 7.72503C5.29997 7.52503 5.29997 7.22503 5.29997 6.82503C5.14997 6.90003 5.17497 7.17503 5.12497 7.30003C5.02497 7.50003 4.69997 7.67503 4.47497 7.65003C4.14997 7.60003 3.99997 7.05003 4.24997 6.85003C4.29997 7.02503 4.17497 7.40003 4.47497 7.42503C4.69997 7.45003 5.14997 7.17503 5.07497 6.92503C4.77497 7.02503 4.59997 6.92503 4.69997 6.60003C4.77497 6.30003 5.07497 6.52503 5.19997 6.67503C5.67497 6.40003 4.82497 5.35003 5.32497 5.07503C5.42497 5.25003 5.57497 5.47503 5.44997 5.65003C5.29997 5.85003 5.44997 6.27503 5.47497 6.50003C5.72497 6.27503 5.52497 6.67503 5.72497 6.70003C5.84997 6.72503 5.89997 6.40003 5.97497 6.40003C5.99997 6.47503 5.99997 6.70003 6.12497 6.67503C6.27497 6.62503 6.09997 6.42503 6.24997 6.37503C6.29997 6.50003 6.27497 6.87503 6.09997 6.85003C5.94997 6.82503 5.97497 6.72503 5.79997 6.82503C5.64997 6.90003 5.59997 6.82503 5.49997 6.75003C5.47497 7.05003 5.57497 7.37503 5.39997 7.65003C5.24997 7.87503 4.94997 8.00003 4.69997 8.05003C4.04997 8.17503 3.87497 7.52503 4.09997 7.00003C4.14997 7.15003 4.04997 7.42503 4.09997 7.60003ZM10.2 7.72503C10.325 8.05003 10.575 7.37503 10.65 7.27503C10.85 6.97503 11.15 7.75003 11.275 7.25003C11.35 6.92503 11.25 6.60003 11.225 6.27503C11.2 6.05003 11.125 5.85003 10.975 5.67503C10.825 5.47503 10.675 5.30003 10.75 5.05003C11 5.15003 11 5.35003 11.125 5.55003C11.15 5.40003 11.05 5.20003 11.15 5.07503C11.275 4.90003 11.375 5.37503 11.375 5.42503C11.4 5.55003 11.275 5.60003 11.35 5.80003C11.4 5.95003 11.5 6.10003 11.6 6.22503C11.575 6.07503 11.35 5.05003 11.6 5.05003C11.675 5.05003 11.75 5.35003 11.75 5.40003C11.8 5.55003 11.7 5.67503 11.7 5.85003C11.675 6.15003 11.725 6.50003 11.925 6.72503C12.025 6.85003 12.4 7.30003 12.2 7.45003C12.05 7.27503 11.95 7.07503 11.825 6.90003C11.825 7.10003 11.875 7.32503 11.775 7.47503C11.675 7.42503 11.725 7.10003 11.725 7.02503C11.725 6.75003 11.55 6.52503 11.4 6.30003C11.35 6.67503 11.65 7.37503 11.3 7.65003C11.075 7.85003 10.775 7.40003 10.7 7.57503C10.625 7.70003 10.45 8.15003 10.25 8.10003C9.99997 8.05003 9.82497 7.35003 10.1 7.27503C10.125 7.40003 10.125 7.57503 10.2 7.72503Z" fill="white"/>
<path d="M4.84997 6.02498C5.02497 6.04998 4.84997 5.44998 4.84997 5.34998C4.87497 5.24998 4.94997 5.19998 4.99997 5.29998C5.07497 5.44998 5.07497 5.62498 5.09997 5.77498C5.09997 5.89998 5.12497 6.04998 5.02497 6.14998C4.87497 6.29998 4.67497 6.22498 4.59997 6.02498C4.24997 6.32498 4.69997 6.84998 4.39997 7.14998C4.34997 6.87498 4.39997 6.57498 4.29997 6.32498C4.24997 6.19998 4.02497 6.24998 3.99997 6.02498C3.99997 5.92498 4.07497 5.64998 3.97497 5.57498C3.92497 5.67498 3.87497 6.44998 3.62497 6.22498C3.42497 6.07498 3.47497 5.57498 3.54997 5.37498C3.69997 5.44998 3.52497 5.99998 3.72497 6.02498C3.82497 6.04998 3.84997 5.62498 3.87497 5.54998C3.94997 5.42498 4.19997 5.07498 4.14997 5.42498C4.12497 5.57498 3.99997 6.04998 4.29997 6.02498C4.27497 5.77498 4.24997 5.52498 4.19997 5.27498C4.17497 5.14998 4.24997 4.89998 4.34997 5.12498C4.42497 5.27498 4.37497 5.34998 4.34997 5.49998C4.32497 5.67498 4.39997 5.84998 4.42497 5.99998C4.57497 5.87498 4.37497 5.39998 4.49997 5.19998C4.79997 5.37498 4.47497 5.97498 4.84997 6.02498ZM8.07497 6.07498C7.94997 6.24998 7.72497 6.09998 7.62497 5.97498C7.49997 6.12498 7.24997 6.37498 7.04997 6.17498C6.89997 6.02498 7.07497 5.74998 6.94997 5.62498C6.87497 5.74998 6.74997 6.34998 6.52497 6.07498C6.39997 5.92498 6.22497 5.39998 6.49997 5.27498C6.47497 5.47498 6.42497 5.69998 6.54997 5.87498C6.67497 6.04998 6.79997 5.59998 6.84997 5.49998C6.92497 5.32498 7.17497 5.02498 7.12497 5.39998C7.09997 5.54998 7.04997 5.89998 7.19997 5.99998C7.29997 6.07498 7.42497 5.94998 7.47497 5.87498C7.57497 5.74998 7.52497 5.54998 7.49997 5.39998C7.47497 5.27498 7.42497 5.12498 7.49997 4.99998C7.59997 4.84998 7.67497 5.19998 7.67497 5.27498C7.67497 5.34998 7.77497 6.12498 7.94997 5.87498C8.12497 5.64998 7.64997 5.14998 7.97497 5.02498C8.09997 4.97498 8.32497 5.47498 8.07497 5.32498C8.14997 5.54998 8.24997 5.87498 8.07497 6.07498ZM9.02497 6.37498C9.04997 6.69998 9.32497 7.59998 8.94997 7.79998C8.89997 7.69998 8.94997 7.54998 8.97497 7.42498C8.99997 7.19998 8.94997 6.97498 8.92497 6.77498C8.87497 6.29998 8.82497 5.94998 8.49997 5.57498C8.42497 5.47498 8.29997 5.39998 8.27497 5.24998C8.27497 5.19998 8.24997 4.97498 8.34997 5.02498C8.42497 5.04998 8.84997 5.42498 8.62497 5.42498C8.64997 5.47498 8.74997 5.67498 8.79997 5.67498C8.79997 5.54998 8.64997 5.17498 8.79997 5.09998C8.92497 5.02498 9.07497 5.49998 9.02497 5.59998C8.97497 5.72498 8.97497 5.79998 9.02497 5.97498C9.07497 6.17498 9.19997 6.34998 9.29997 6.52498C9.44997 6.77498 9.74997 7.12498 9.67497 7.44998C9.52497 7.37498 9.42497 7.02498 9.34997 6.87498C9.29997 6.74998 9.24997 6.62498 9.17497 6.52498C9.14997 6.49998 8.99997 6.29998 9.02497 6.42498V6.37498ZM12.5 6.84998C12.525 7.37498 12.35 8.04998 11.7 8.04998C11.7 7.89998 12.025 7.74998 12.125 7.67498C12.375 7.47498 12.35 7.09998 12.325 6.82498C12.3 6.44998 12.275 6.07498 12.2 5.69998C12.175 5.47498 12.05 5.14998 12.25 4.99998C12.375 5.09998 12.55 5.37498 12.475 5.47498C12.35 5.62498 12.475 6.74998 12.5 6.84998Z" fill="white"/>
<path d="M9.29995 7.975C9.94995 7.6 9.74995 6.8 9.69995 6.175C9.67495 6 9.67495 5.825 9.64995 5.65C9.64995 5.525 9.54995 5.35 9.59995 5.225C9.72495 4.9 9.82495 5.2 9.84995 5.4C9.87495 5.525 9.77495 5.55 9.79995 5.65C9.82495 5.85 9.82495 6.05 9.84995 6.25C9.87495 6.575 9.92495 6.9 9.89995 7.2C9.84995 7.675 9.59995 8.2 9.02495 8.1C9.04995 8.05 9.22495 8.025 9.29995 7.975ZM10.35 6.725C10.375 6.975 10.475 7.425 10.35 7.65C10.25 7.8 10.25 7.55 10.225 7.525C10.2 7.325 10.2 7.125 10.2 6.9C10.15 6.35 9.97495 5.8 9.97495 5.275C9.97495 4.6 10.55 5.65 10.225 5.6C10.25 5.975 10.3 6.35 10.35 6.725ZM6.27495 5.45C6.32495 5.575 5.69995 5.9 5.62495 5.9C5.59995 5.775 5.89995 5.6 5.97495 5.55C6.04995 5.475 6.09995 5.475 6.07495 5.375C6.02495 5.275 6.04995 5.1 6.17495 5.05C6.42495 4.975 6.24995 5.35 6.27495 5.45ZM3.69995 7.675C3.69995 7.875 3.77495 7.775 3.87495 7.725C3.92495 7.825 3.79995 8.1 3.67495 7.975C3.49995 7.8 3.64995 7.4 3.72495 7.225C3.77495 7.35 3.67495 7.55 3.69995 7.675ZM10.75 6.125C10.775 6.025 10.7 5.925 10.775 5.825C10.875 5.7 10.975 5.85 10.925 5.9C10.875 5.95 10.8 5.85 10.8 6C10.8 6.075 10.85 6.225 10.775 6.3C10.725 6.275 10.5 5.95 10.525 5.9C10.625 5.8 10.725 6.1 10.75 6.125ZM4.22495 6.55C4.17495 6.65 3.59995 6.975 3.57495 6.9C3.57495 6.825 4.29995 6.4 4.22495 6.55ZM8.47495 7.825C8.39995 8.05 8.72495 7.85 8.79995 7.825C8.69995 8 8.34995 8.15 8.39995 7.825C8.37495 7.825 8.32495 7.85 8.29995 7.85C8.24995 7.8 8.54995 7.6 8.47495 7.825ZM11.2 7.75C11.275 7.75 11.4 7.975 11.325 8.025C11.275 8.075 11.05 8.1 11.175 8C11.325 7.85 11.2 7.75 11.2 7.75ZM7.67495 6.475C7.69995 6.425 7.69995 6.35 7.72495 6.3C7.97495 6.5 7.32495 6.825 7.44995 6.35C7.49995 6.4 7.49995 6.475 7.54995 6.5C7.54995 6.45 7.57495 6.375 7.57495 6.325C7.62495 6.375 7.62495 6.45 7.67495 6.475ZM10.6 6.8C10.525 6.7 10.975 6.425 11.05 6.375C11.1 6.45 10.75 6.725 10.6 6.8ZM12 5.8C11.95 5.65 11.8 5.35 11.95 5.225C12.05 5.3 12.1 5.675 12 5.8ZM9.27495 5.3C9.24995 5.25 9.17495 5.2 9.17495 5.125C9.19995 5.025 9.24995 5.05 9.29995 5.1C9.37495 5.2 9.42495 5.475 9.29995 5.55C9.29995 5.475 9.32495 5.375 9.27495 5.3ZM6.22495 5.975C6.22495 6.125 5.97495 6.275 5.94995 6.075C5.92495 6 6.04995 5.725 6.09995 5.8C5.99995 6.025 5.99995 6.1 6.22495 5.975Z" fill="white"/>
<path d="M9.34998 5.70002C9.44998 5.95002 9.39998 5.72502 9.49998 5.67502C9.67498 6.00002 9.12498 5.92502 9.24998 5.72502C9.27498 5.75002 9.29998 5.80002 9.29998 5.82502C9.32498 5.80002 9.32498 5.75002 9.34998 5.70002ZM10.95 6.85002C10.825 6.75002 10.975 6.62502 11.05 6.75002C11.1 6.82502 11.1 7.02502 11 7.07502C11 7.00002 11.025 6.90002 10.95 6.85002ZM5.82498 7.40002C5.82498 7.35002 5.79998 6.97502 5.87498 7.02502C5.97498 7.07502 5.94998 7.35002 5.82498 7.40002ZM4.77498 5.05002C4.79998 5.12502 4.82498 5.22502 4.87498 5.10002C5.07498 5.32502 4.37498 5.25002 4.62498 5.02502C4.62498 5.05002 4.67498 5.20002 4.77498 5.05002ZM7.32498 5.60002C7.32498 5.50002 7.17498 5.07502 7.29998 5.07502C7.44998 5.10002 7.42498 5.47502 7.32498 5.60002ZM3.82498 5.37502C3.74998 5.35002 3.87498 5.22502 3.82498 5.12502C3.77498 5.15002 3.72498 5.07502 3.77498 5.02502C3.97498 4.87502 3.89998 5.37502 3.82498 5.37502ZM10.3 10.45L10.2 10.15L10.1 10.45H4.62498C4.62498 10.45 4.67498 10.9 5.22498 10.9H10.075V11.25H11.4V10.45H10.3ZM11.15 11.05H10.25V10.8H11.15V11.05Z" fill="white"/>
</svg>
